<svg xmlns="http://www.w3.org/2000/svg" width="153" height="99.649" viewBox="0 0 153 99.649"><g transform="translate(0 -0.049)"><text transform="translate(0 92.698)" fill="#ee4d64" font-size="29.861" font-family="Roboto-Bold, Roboto" font-weight="700"><tspan x="0" y="0">GYMPOINT</tspan></text><g transform="translate(26.128)"><g transform="translate(0.524)"><path d="M34.191,52.2a7.071,7.071,0,0,1-7.063-7.063v-9.7H2.012a2.011,2.011,0,1,1,0-4.022H29.139a2.013,2.013,0,0,1,2.011,2.011V45.133a3.04,3.04,0,1,0,6.08,0V7.063a3.04,3.04,0,1,0-6.08,0V18.771a2.011,2.011,0,1,1-4.023,0V7.063a7.062,7.062,0,0,1,14.106-.511,6.988,6.988,0,0,1,3.061-.7,7.073,7.073,0,0,1,7.048,6.619,6.99,6.99,0,0,1,3.056-.7,7.071,7.071,0,0,1,7.063,7.062V33.358A7.071,7.071,0,0,1,54.4,40.421a6.977,6.977,0,0,1-3.056-.7,7.073,7.073,0,0,1-7.048,6.619,6.987,6.987,0,0,1-3.061-.7A7.071,7.071,0,0,1,34.191,52.2Zm10.1-42.32a3.044,3.044,0,0,0-3.04,3.04V39.28a3.041,3.041,0,0,0,6.081,0V12.917A3.044,3.044,0,0,0,44.294,9.877ZM54.4,15.8a3.044,3.044,0,0,0-3.041,3.04V33.358a3.041,3.041,0,0,0,6.081,0V18.839A3.044,3.044,0,0,0,54.4,15.8Z" transform="translate(38.243 0.049)" fill="#ee4d64"/><path d="M27.271,52.2a7.071,7.071,0,0,1-7.042-6.552,6.99,6.99,0,0,1-3.062.7,7.074,7.074,0,0,1-7.048-6.619,6.976,6.976,0,0,1-3.055.7A7.071,7.071,0,0,1,0,33.358V18.84a7.071,7.071,0,0,1,7.063-7.063,6.987,6.987,0,0,1,3.055.7,7.075,7.075,0,0,1,7.048-6.619,6.989,6.989,0,0,1,3.062.7,7.062,7.062,0,0,1,14.106.511v9.7H59.45a2.012,2.012,0,1,1,0,4.023H32.323a2.014,2.014,0,0,1-2.011-2.012V7.063a3.041,3.041,0,0,0-6.081,0v38.07a3.041,3.041,0,1,0,6.081,0V33.425a2.012,2.012,0,0,1,4.023,0V45.133A7.071,7.071,0,0,1,27.271,52.2Zm-10.1-42.32a3.044,3.044,0,0,0-3.041,3.04V39.28a3.041,3.041,0,0,0,6.081,0V12.917A3.044,3.044,0,0,0,17.168,9.877ZM7.063,15.8a3.044,3.044,0,0,0-3.04,3.041V33.358a3.041,3.041,0,0,0,6.081,0V18.84A3.045,3.045,0,0,0,7.063,15.8Z" transform="translate(0.057 0.049)" fill="#ee4d64"/><path d="M0,2.011v.674a2.011,2.011,0,0,0,4.023,0V2.011A2.011,2.011,0,0,0,0,2.011Z" transform="translate(30.363 24.253)" fill="#ee4d64"/><path d="M4.023,2.686V2.011A2.011,2.011,0,0,0,0,2.011v.674a2.011,2.011,0,0,0,4.023,0Z" transform="translate(65.371 23.355)" fill="#ee4d64"/></g></g></g></svg>